<svg width="23" height="20" viewBox="0 0 23 20" fill="none" xmlns="http://www.w3.org/2000/svg">
<g clip-path="url(#clip0_858_1251)">
<path d="M11.3853 20C17.3473 20 22.1804 15.5228 22.1804 10C22.1804 4.47715 17.3473 0 11.3853 0C5.42334 0 0.59021 4.47715 0.59021 10C0.59021 15.5228 5.42334 20 11.3853 20Z" fill="#3577E5"/>
<path d="M12.3929 15.9333V10.5333H14.336L14.6239 8.39998H12.3929V7.06665C12.3929 6.46665 12.6088 6.06665 13.5443 6.06665H14.7678V4.13332C14.5519 4.13332 13.8322 4.06665 13.0406 4.06665C11.3134 4.06665 10.0899 5.06665 10.0899 6.86665V8.39998H8.14679V10.5333H10.0899V15.9333H12.3929Z" fill="white"/>
</g>
<defs>
<clipPath id="clip0_858_1251">
<rect width="21.5902" height="20" fill="white" transform="translate(0.59021)"/>
</clipPath>
</defs>
</svg>
