<svg width="22" height="20" viewBox="0 0 22 20" fill="none" xmlns="http://www.w3.org/2000/svg">
<path d="M21.7216 10.225C21.7216 9.56665 21.6587 8.94165 21.5507 8.33331H11.3853V12.0916H17.2057C16.9448 13.325 16.1801 14.3666 15.0467 15.075V17.575H18.5191C20.5522 15.8333 21.7216 13.2666 21.7216 10.225Z" fill="#4285F4"/>
<path d="M11.3854 20C14.3 20 16.7379 19.1 18.5191 17.575L15.0467 15.075C14.0751 15.675 12.8427 16.0417 11.3854 16.0417C8.56964 16.0417 6.18572 14.2833 5.33111 11.9083H1.75073V14.4833C3.52293 17.75 7.16628 20 11.3854 20Z" fill="#34A853"/>
<path d="M5.33106 11.9083C5.10616 11.3083 4.98922 10.6667 4.98922 9.99999C4.98922 9.33333 5.11516 8.69166 5.33106 8.09166V5.51666H1.75068C1.01302 6.86666 0.59021 8.38333 0.59021 9.99999C0.59021 11.6167 1.01302 13.1333 1.75068 14.4833L5.33106 11.9083Z" fill="#FBBC05"/>
<path d="M11.3854 3.95833C12.9776 3.95833 14.399 4.46667 15.5235 5.45834L18.6001 2.60833C16.7379 0.991668 14.3 0 11.3854 0C7.16628 0 3.52293 2.25 1.75073 5.51667L5.33111 8.09167C6.18572 5.71667 8.56964 3.95833 11.3854 3.95833Z" fill="#EA4335"/>
</svg>
