<svg width="19" height="20" viewBox="0 0 19 20" fill="none" xmlns="http://www.w3.org/2000/svg">
<g clip-path="url(#clip0_858_4081)">
<path d="M15.7465 19.2C14.5763 20.252 13.2852 20.088 12.0546 19.592C10.7462 19.086 9.55009 19.054 8.16831 19.592C6.44757 20.28 5.53431 20.08 4.49798 19.2C-1.35297 13.62 -0.489363 5.12 6.16042 4.8C7.77321 4.88 8.90238 5.626 9.85235 5.688C11.2643 5.422 12.6159 4.66001 14.1272 4.76001C15.943 4.896 17.301 5.56 18.2078 6.754C14.4727 8.83399 15.3579 13.394 18.7885 14.674C18.102 16.344 17.2211 17.994 15.7443 19.214L15.7465 19.2ZM9.72281 4.74001C9.54793 2.26001 11.7177 0.220019 14.2136 0.0200195C14.5569 2.88001 11.4068 5.02 9.72281 4.74001Z" fill="#101623"/>
</g>
<defs>
<clipPath id="clip0_858_4081">
<rect width="18.179" height="20" fill="white" transform="translate(0.59021)"/>
</clipPath>
</defs>
</svg>
